<?xml version="1.0" encoding="utf-8"?>
<!-- Generator: Adobe Illustrator 17.1.0, SVG Export Plug-In . SVG Version: 6.00 Build 0)  -->
<!DOCTYPE svg PUBLIC "-//W3C//DTD SVG 1.1//EN" "http://www.w3.org/Graphics/SVG/1.1/DTD/svg11.dtd" [
	<!ENTITY ns_extend "http://ns.adobe.com/Extensibility/1.0/">
	<!ENTITY ns_ai "http://ns.adobe.com/AdobeIllustrator/10.0/">
	<!ENTITY ns_graphs "http://ns.adobe.com/Graphs/1.0/">
	<!ENTITY ns_vars "http://ns.adobe.com/Variables/1.0/">
	<!ENTITY ns_imrep "http://ns.adobe.com/ImageReplacement/1.0/">
	<!ENTITY ns_sfw "http://ns.adobe.com/SaveForWeb/1.0/">
	<!ENTITY ns_custom "http://ns.adobe.com/GenericCustomNamespace/1.0/">
	<!ENTITY ns_adobe_xpath "http://ns.adobe.com/XPath/1.0/">
]>
<svg version="1.1" id="Calque_1" xmlns:x="&ns_extend;" xmlns:i="&ns_ai;" xmlns:graph="&ns_graphs;"
	 xmlns="http://www.w3.org/2000/svg" xmlns:xlink="http://www.w3.org/1999/xlink" x="0px" y="0px" viewBox="0 0 666 148"
	 enable-background="new 0 0 666 148" xml:space="preserve">
<metadata>
	<sfw  xmlns="&ns_sfw;">
		<slices></slices>
		<sliceSourceBounds  height="175.7" width="676.1" x="56.9" y="-373.4" bottomLeftOrigin="true"></sliceSourceBounds>
	</sfw>
</metadata>
<g>
	<linearGradient id="SVGID_1_" gradientUnits="userSpaceOnUse" x1="27.9386" y1="72.6067" x2="131.5698" y2="72.6067">
		<stop  offset="0" style="stop-color:#FF007C"/>
		<stop  offset="1" style="stop-color:#FF9A00"/>
	</linearGradient>
	<path fill="url(#SVGID_1_)" d="M37.9,17.3c-7.6,7.6-10.2,31.6-9.9,55.3c-0.3,23.7,2.3,47.7,9.9,55.3c16.5,16.5,93.7-41.3,93.7-55.3
		C131.6,58.6,54.4,0.8,37.9,17.3z"/>
	<g>
		<defs>
			<path id="SVGID_2_" d="M46,133.3c-4.4,0-7.9-1.2-10.4-3.7C25.5,119.5,24.9,86.4,25,72.6c-0.2-13.7,0.5-46.9,10.6-57
				c2.4-2.4,5.9-3.7,10.4-3.7c25.9,0,87.5,45.9,87.5,60.7c0,8.3-18.3,24.5-33.9,35.7C91.5,114.2,63.7,133.3,46,133.3L46,133.3z"/>
		</defs>
		<clipPath id="SVGID_3_">
			<use xlink:href="#SVGID_2_"  overflow="visible"/>
		</clipPath>
		<g clip-path="url(#SVGID_3_)">
			<path fill="none" stroke="#FFFFFF" stroke-width="3.4283" stroke-miterlimit="10" d="M40-9.7c0,0,38.6,87.7,164.6,164.6"/>
			<path fill="none" stroke="#FFFFFF" stroke-width="3.4283" stroke-miterlimit="10" d="M204.6-9.7C147.6-12.8,40,154.9,40,154.9"/>
		</g>
		<g clip-path="url(#SVGID_3_)">
			<line fill="none" stroke="#FFFFFF" stroke-width="2.5712" stroke-miterlimit="10" x1="-31.2" y1="-18.5" x2="133.4" y2="146.1"/>
			<line fill="none" stroke="#FFFFFF" stroke-width="2.5712" stroke-miterlimit="10" x1="133.4" y1="-18.5" x2="-31.2" y2="146.1"/>
		</g>
	</g>
</g>
<g>
	<path fill="#3D4652" d="M203.5,62.9v15.2c-1,0.7-1.9,1.3-3,1.8c-1,0.5-2.1,0.9-3.3,1.3c-1.2,0.3-2.4,0.6-3.7,0.7
		c-1.3,0.2-2.8,0.2-4.3,0.2c-2.7,0-5.2-0.5-7.5-1.4c-2.3-1-4.3-2.3-6-4c-1.7-1.7-3-3.7-3.9-6.1c-0.9-2.3-1.4-4.9-1.4-7.7
		c0-2.8,0.5-5.4,1.4-7.8c0.9-2.4,2.2-4.4,3.9-6.1c1.7-1.7,3.7-3,6.1-3.9c2.3-0.9,4.9-1.4,7.7-1.4c0.1,0,0.2,0,0.3,0l0,0
		c4,0,8.5,0.9,13.3,2.7l0,9.6h-0.2h-0.6h-2.1c-0.7,0-1.1-0.3-1.2-1c-0.1-0.5-0.2-1.8-0.4-4.1c-2.6-0.9-5.5-1.3-8.9-1.3
		c-1.9,0-3.5,0.3-5,0.9c-1.5,0.6-2.8,1.5-3.8,2.7c-1.1,1.2-1.9,2.6-2.4,4.2c-0.6,1.6-0.9,3.4-0.9,5.4c0,2.2,0.3,4.1,0.9,5.8
		c0.6,1.7,1.5,3.1,2.5,4.3c1.1,1.2,2.4,2,3.9,2.7c1.5,0.6,3.1,0.9,4.9,0.9c1.6,0,2.9-0.1,4.1-0.4c1.2-0.3,2.3-0.7,3.3-1.2v-6.8h-4.7
		c-0.4,0-0.8-0.1-1.1-0.4c-0.3-0.3-0.4-0.6-0.4-0.9l0-3.9H203.5z"/>
	<path fill="#3D4652" d="M225.4,55.6c1.6,0.6,3,1.5,4.1,2.7c1.1,1.2,2,2.6,2.6,4.3c0.6,1.7,0.9,3.6,0.9,5.7c0,2.1-0.3,4-0.9,5.7
		c-0.6,1.7-1.5,3.1-2.6,4.3c-1.1,1.2-2.5,2.1-4.1,2.7c-1.6,0.6-3.4,1-5.4,1s-3.8-0.3-5.4-1c-1.6-0.6-3-1.6-4.2-2.7
		c-1.2-1.2-2-2.6-2.7-4.3c-0.6-1.7-0.9-3.6-0.9-5.7c0-2.1,0.3-4,0.9-5.7c0.6-1.7,1.5-3.1,2.7-4.3c1.1-1.2,2.5-2.1,4.2-2.7
		c1.6-0.6,3.4-1,5.4-1S223.8,55,225.4,55.6z M224.9,74.9c1.1-1.5,1.6-3.7,1.6-6.5s-0.5-5.1-1.6-6.6c-1.1-1.5-2.7-2.3-4.9-2.3
		c-2.2,0-3.9,0.8-5,2.3c-1.1,1.5-1.6,3.7-1.6,6.5s0.5,5,1.6,6.5c1.1,1.5,2.7,2.2,5,2.2C222.2,77.1,223.8,76.4,224.9,74.9z"/>
	<path fill="#3D4652" d="M277,56.1c0,1.8-0.3,3.5-0.9,5c-0.6,1.5-1.5,2.8-2.7,3.9c-1.2,1.1-2.7,1.9-4.5,2.5
		c-1.8,0.6-3.9,0.9-6.4,0.9h-4.6v8.1c0.6,0.1,1.2,0.2,1.5,0.3c0.4,0.1,0.6,0.1,0.8,0.1c0.1,0,0.2,0,0.3,0.1c0.9,0.2,1.3,0.7,1.3,1.6
		v3h-3.9h-7H247v-3c0-0.9,0.4-1.4,1.3-1.6c0.1,0,0.2,0,0.3-0.1c0.1,0,0.4-0.1,0.8-0.1c0.4-0.1,0.9-0.2,1.5-0.3V49.3
		c-0.6-0.1-1.2-0.2-1.5-0.3c-0.4-0.1-0.6-0.1-0.8-0.1c-0.1,0-0.2,0-0.3-0.1c-0.9-0.2-1.3-0.7-1.3-1.6v-3h3.9h11.6
		c2.5,0,4.7,0.3,6.5,0.9c1.8,0.6,3.3,1.4,4.5,2.5c1.2,1.1,2.1,2.3,2.6,3.8C276.8,52.8,277,54.4,277,56.1z M270.1,56.1
		c0-1-0.2-1.9-0.5-2.7c-0.3-0.8-0.8-1.5-1.4-2.1c-0.6-0.6-1.4-1-2.4-1.3c-1-0.3-2.1-0.5-3.3-0.5h-4.6V63h4.6c1.3,0,2.4-0.2,3.3-0.5
		c1-0.3,1.7-0.8,2.4-1.4c0.6-0.6,1.1-1.3,1.4-2.2C269.9,58.1,270.1,57.2,270.1,56.1z"/>
	<path fill="#3D4652" d="M293.1,78.6v3h-3.9h-6.4h-3.9v-3c0-0.9,0.4-1.4,1.3-1.6c0.1,0,0.2,0,0.3-0.1c0.1,0,0.4-0.1,0.8-0.1
		c0.4-0.1,0.9-0.2,1.5-0.3V48.3c-0.6-0.1-1.2-0.2-1.5-0.3c-0.4-0.1-0.6-0.1-0.8-0.1c-0.1,0-0.2,0-0.3-0.1c-0.9-0.2-1.3-0.7-1.3-1.6
		v-3h3.9h6.4v33.4c0.6,0.1,1.2,0.2,1.5,0.3c0.4,0.1,0.6,0.1,0.8,0.1c0.1,0,0.2,0,0.3,0.1C292.6,77.2,293.1,77.7,293.1,78.6z"/>
	<path fill="#3D4652" d="M320,78.6v3h-3.2h-0.7h-2.2c-0.6,0-1.1-0.1-1.4-0.3c-0.3-0.2-0.6-0.5-0.8-1.1l-0.6-1.9
		c-0.7,0.6-1.3,1.1-2,1.6c-0.6,0.5-1.3,0.8-2,1.2c-0.7,0.3-1.4,0.5-2.2,0.7c-0.8,0.2-1.6,0.2-2.6,0.2c-1.1,0-2.2-0.2-3.1-0.5
		c-1-0.3-1.8-0.8-2.5-1.4c-0.7-0.6-1.2-1.4-1.6-2.3c-0.4-0.9-0.6-2-0.6-3.1c0-1,0.3-2,0.8-3c0.5-1,1.4-1.9,2.6-2.7
		c1.2-0.8,2.9-1.4,4.9-2c2-0.5,4.6-0.8,7.6-0.8v-1.6c0-1.8-0.4-3.1-1.1-4c-0.8-0.9-1.8-1.3-3.3-1.3c-1,0-1.9,0.1-2.6,0.4
		c-0.7,0.2-1.3,0.5-1.8,0.8c-0.5,0.3-1,0.6-1.4,0.8c-0.4,0.2-0.9,0.4-1.4,0.4c-0.4,0-0.8-0.1-1.1-0.3c-0.3-0.2-0.6-0.5-0.8-0.8
		l-1.2-2c3.1-2.8,6.8-4.2,11.1-4.2c1.6,0,2.9,0.3,4.2,0.8c1.2,0.5,2.3,1.2,3.1,2.1c0.8,0.9,1.5,2,1.9,3.3c0.4,1.3,0.7,2.6,0.7,4.1
		v11.8c0.6,0.1,1,0.2,1.4,0.2c0.3,0.1,0.5,0.1,0.6,0.1C319.6,77.2,320,77.7,320,78.6z M310.6,70.4c-1.9,0-3.4,0.1-4.7,0.4
		c-1.3,0.2-2.3,0.5-3,0.9c-0.8,0.4-1.3,0.8-1.6,1.3c-0.3,0.5-0.5,1-0.5,1.6c0,1.1,0.3,1.9,1,2.4c0.7,0.5,1.5,0.7,2.6,0.7
		c0.7,0,1.3-0.1,1.8-0.2c0.6-0.1,1.1-0.3,1.6-0.5c0.5-0.2,1-0.5,1.4-0.9c0.5-0.3,0.9-0.8,1.4-1.2L310.6,70.4z"/>
	<path fill="#3D4652" d="M351,55.1v3c0,0.9-0.4,1.4-1.3,1.6c-0.4,0.1-0.2,0-2.4,0.4L334.9,89c-0.2,0.4-0.4,0.8-0.7,1
		c-0.3,0.2-0.8,0.3-1.4,0.3H328l5-10.7l-8.5-19.5c-2.2-0.4-2-0.4-2.4-0.4c-0.9-0.2-1.3-0.7-1.3-1.6v-3h1.5l0,0h5.6c0,0,0,0,0,0h5.8
		v3c0,0.9-0.4,1.4-1.3,1.6c-0.3,0.1-0.4,0.1-1.2,0.2l4.2,10.1c0.2,0.4,0.4,0.9,0.5,1.4c0.1,0.5,0.3,1,0.4,1.5c0.1-0.5,0.3-1,0.5-1.5
		c0.2-0.5,0.3-0.9,0.5-1.4l3.9-10c-1.3-0.2-1.4-0.3-1.7-0.3c-0.9-0.2-1.3-0.7-1.3-1.6v-3h6.3c0,0,0,0,0,0h5.1v0H351z"/>
	<path fill="#3D4652" d="M389.2,69.9c0,1.7-0.3,3.3-0.9,4.8c-0.6,1.5-1.4,2.8-2.5,3.9c-1.1,1.1-2.5,2-4.1,2.6
		c-1.6,0.6-3.5,0.9-5.5,0.9c-0.2,0-0.5,0-0.8,0c-3.3,0-6.9-0.7-10.8-2v-0.9v-8.7h0.2h0.6h2.1c0.7,0,1.1,0.3,1.2,1
		c0.1,0.5,0.2,1.9,0.5,4.3c1.5,0.5,3.9,0.7,7.1,0.7c2,0,3.5-0.5,4.6-1.4c1.1-0.9,1.6-2.3,1.6-4.1c0-1-0.2-1.8-0.7-2.4
		c-0.5-0.6-1.1-1.1-2-1.6c-0.8-0.4-1.7-0.8-2.8-1.1c-1-0.3-2.1-0.6-3.2-1c-1.1-0.3-2.1-0.8-3.2-1.2c-1-0.5-2-1.1-2.8-1.9
		c-0.8-0.8-1.5-1.8-2-2.9c-0.5-1.2-0.7-2.6-0.7-4.3c0-1.4,0.3-2.7,0.8-4c0.5-1.3,1.3-2.4,2.4-3.4c1-1,2.3-1.8,3.9-2.4
		c1.5-0.6,3.3-0.9,5.2-0.9c3.7,0,7.3,0.7,10.8,2.1v9.6h-0.2h-0.6h-2.1c-0.7,0-1.1-0.3-1.2-1c-0.1-0.5-0.2-1.9-0.5-4.2
		c-1.3-0.6-3.3-0.9-6-0.9c-1,0-1.8,0.1-2.5,0.3c-0.7,0.2-1.3,0.6-1.8,1c-0.5,0.4-0.9,0.9-1.1,1.5c-0.2,0.6-0.4,1.2-0.4,1.9
		c0,0.9,0.2,1.6,0.7,2.2c0.5,0.6,1.1,1.1,2,1.5c0.8,0.4,1.7,0.8,2.8,1.1c1,0.3,2.1,0.7,3.2,1.1c1.1,0.4,2.1,0.8,3.2,1.3
		c1,0.5,2,1.1,2.8,1.9c0.8,0.8,1.5,1.7,2,2.8C389,67.1,389.2,68.4,389.2,69.9z"/>
	<path fill="#3D4652" d="M410.3,55.6c1.6,0.6,3,1.5,4.1,2.7c1.1,1.2,2,2.6,2.6,4.3c0.6,1.7,0.9,3.6,0.9,5.7c0,2.1-0.3,4-0.9,5.7
		c-0.6,1.7-1.5,3.1-2.6,4.3c-1.1,1.2-2.5,2.1-4.1,2.7c-1.6,0.6-3.4,1-5.4,1c-2,0-3.8-0.3-5.4-1c-1.6-0.6-3-1.6-4.2-2.7
		c-1.1-1.2-2-2.6-2.7-4.3c-0.6-1.7-0.9-3.6-0.9-5.7c0-2.1,0.3-4,0.9-5.7c0.6-1.7,1.5-3.1,2.7-4.3c1.2-1.2,2.5-2.1,4.2-2.7
		c1.6-0.6,3.4-1,5.4-1C406.9,54.7,408.7,55,410.3,55.6z M409.8,74.9c1.1-1.5,1.6-3.7,1.6-6.5s-0.5-5.1-1.6-6.6
		c-1.1-1.5-2.7-2.3-4.9-2.3c-2.2,0-3.9,0.8-5,2.3s-1.6,3.7-1.6,6.5s0.5,5,1.6,6.5c1.1,1.5,2.7,2.2,5,2.2
		C407.1,77.1,408.7,76.4,409.8,74.9z"/>
	<path fill="#3D4652" d="M465.1,78.6v3h-3.9h-6.4V64.8c0-1.7-0.4-3-1.1-3.8c-0.7-0.9-1.8-1.3-3.3-1.3c-0.7,0-1.3,0.1-1.8,0.3
		c-0.6,0.2-1.1,0.5-1.5,1c-0.4,0.4-0.8,1-1,1.6c-0.2,0.6-0.4,1.4-0.4,2.2v11.8c0.6,0.1,1.2,0.2,1.5,0.3c0.4,0.1,0.6,0.1,0.8,0.1
		c0.1,0,0.3,0,0.3,0.1c0.9,0.2,1.3,0.7,1.3,1.6v3h-3.9h-6.4V64.8c0-1.8-0.4-3.1-1.1-3.9c-0.7-0.8-1.8-1.2-3.2-1.2
		c-0.9,0-1.8,0.2-2.6,0.7c-0.8,0.5-1.6,1.1-2.2,1.9v14.3c0.6,0.1,1.2,0.2,1.5,0.3c0.4,0.1,0.6,0.1,0.8,0.1c0.1,0,0.2,0,0.3,0.1
		c0.9,0.2,1.3,0.7,1.3,1.6v3h-3.9h-6.4h-3.9v-3c0-0.9,0.4-1.4,1.3-1.6c0.1,0,0.2,0,0.3-0.1c0.1,0,0.4-0.1,0.8-0.1
		c0.4-0.1,0.9-0.2,1.5-0.3V60.2c-0.6-0.1-1.2-0.2-1.5-0.3c-0.4-0.1-0.6-0.1-0.8-0.1c-0.1,0-0.2,0-0.3-0.1c-0.9-0.2-1.3-0.7-1.3-1.6
		v-3h3.9l3.9,0c0.8,0,1.4,0.4,1.6,1.2l0.4,2c0.5-0.5,1-1,1.5-1.4c0.5-0.4,1.1-0.8,1.6-1.1c0.6-0.3,1.2-0.6,1.9-0.7
		c0.7-0.2,1.4-0.3,2.2-0.3c1.7,0,3.1,0.5,4.1,1.4c1.1,0.9,1.9,2.1,2.4,3.6c0.4-0.9,0.9-1.6,1.6-2.3c0.6-0.6,1.3-1.1,2-1.5
		c0.7-0.4,1.5-0.7,2.4-0.9c0.8-0.2,1.7-0.3,2.5-0.3c1.5,0,2.8,0.2,3.9,0.7c1.1,0.4,2.1,1.1,2.9,2c0.8,0.9,1.4,1.9,1.8,3.2
		c0.4,1.2,0.6,2.7,0.6,4.3v11.8c0.6,0.1,1.2,0.2,1.5,0.3c0.4,0.1,0.6,0.1,0.8,0.1c0.1,0,0.2,0,0.3,0.1
		C464.6,77.2,465.1,77.7,465.1,78.6z"/>
	<path fill="#3D4652" d="M484.2,55.5c1.4,0.5,2.6,1.3,3.6,2.3c1,1,1.8,2.3,2.4,3.8c0.6,1.5,0.9,3.2,0.9,5.1c0,0.5,0,0.9-0.1,1.2
		c0,0.3-0.1,0.6-0.2,0.8c-0.1,0.2-0.3,0.3-0.5,0.4c-0.2,0.1-0.4,0.1-0.7,0.1h-16.4c0.2,2.7,0.9,4.7,2.2,6c1.3,1.3,3,1.9,5.1,1.9
		c1,0,1.9-0.1,2.7-0.4c0.8-0.2,1.4-0.5,2-0.8c0.6-0.3,1.1-0.6,1.5-0.8c0.4-0.2,0.8-0.4,1.2-0.4c0.3,0,0.5,0.1,0.7,0.2
		c0.2,0.1,0.4,0.3,0.5,0.4l1.9,2.3c-0.7,0.8-1.5,1.5-2.4,2.1c-0.9,0.6-1.8,1-2.8,1.3c-1,0.3-1.9,0.6-2.9,0.7c-1,0.1-2,0.2-2.9,0.2
		c-1.9,0-3.6-0.3-5.2-0.9c-1.6-0.6-3-1.5-4.2-2.7c-1.2-1.2-2.1-2.7-2.8-4.5c-0.7-1.8-1-3.8-1-6.2c0-1.8,0.3-3.5,0.9-5.1
		c0.6-1.6,1.4-3,2.5-4.2c1.1-1.2,2.4-2.1,4-2.8c1.6-0.7,3.4-1,5.4-1C481.3,54.7,482.8,54.9,484.2,55.5z M475.3,60.8
		c-1.1,1.1-1.7,2.6-2,4.5h12c0-0.8-0.1-1.6-0.3-2.3c-0.2-0.7-0.6-1.4-1-1.9c-0.5-0.6-1.1-1-1.8-1.3c-0.7-0.3-1.5-0.5-2.5-0.5
		C477.9,59.3,476.4,59.8,475.3,60.8z"/>
	<path fill="#3D4652" d="M536.7,55.1v3c0,0.9-0.4,1.4-1.3,1.6c-0.4,0.1-0.2,0-2.5,0.4l-6.8,21.5H521c-0.6,0-1-0.4-1.2-1.1L515,65.2
		c-0.2-0.5-0.3-1-0.4-1.5c-0.1-0.5-0.2-1-0.3-1.5c-0.1,0.5-0.2,1-0.3,1.5c-0.1,0.5-0.3,1-0.4,1.5l-4.8,15.3
		c-0.2,0.8-0.7,1.1-1.4,1.1h-4.9l-6.8-21.5c-2.2-0.4-2.1-0.4-2.5-0.4c-0.9-0.2-1.3-0.7-1.3-1.6v-3h2.1l0,0h5.1c0,0,0,0,0,0h5.7v3
		c0,0.9-0.4,1.4-1.3,1.6c-0.3,0.1-0.4,0.1-1.6,0.3l2.8,10.4c0.2,0.8,0.4,1.5,0.5,2.3c0.1,0.7,0.3,1.5,0.4,2.2
		c0.2-0.7,0.4-1.5,0.6-2.2c0.2-0.7,0.4-1.5,0.7-2.3l4.4-14.3c0.1-0.3,0.3-0.6,0.6-0.9c0.3-0.2,0.7-0.3,1.1-0.3h2.8
		c0.5,0,0.9,0.1,1.2,0.3c0.3,0.2,0.5,0.5,0.6,0.9l4.4,14.5c0.2,0.7,0.4,1.5,0.6,2.2c0.2,0.7,0.4,1.4,0.5,2.1
		c0.1-0.7,0.3-1.5,0.4-2.2c0.1-0.7,0.3-1.5,0.6-2.3l2.9-10.4c-1.4-0.3-1.5-0.3-1.9-0.3c-0.9-0.2-1.3-0.7-1.3-1.6v-3h6c0,0,0,0,0,0
		h4.9v0H536.7z"/>
	<path fill="#3D4652" d="M569.5,78.6v3h-3.9h-6.4V64.8c0-1.6-0.4-2.9-1.1-3.8c-0.8-0.9-1.9-1.3-3.4-1.3c-1.1,0-2.1,0.3-3.1,0.8
		c-1,0.5-1.9,1.2-2.8,2v14.1c0.6,0.1,1.2,0.2,1.5,0.3c0.4,0.1,0.6,0.1,0.8,0.1c0.1,0,0.3,0,0.3,0.1c0.9,0.2,1.3,0.7,1.3,1.6v3h-3.9
		h-6.4h-3.9v-3c0-0.9,0.4-1.4,1.3-1.6c0.1,0,0.2,0,0.3-0.1c0.1,0,0.4-0.1,0.8-0.1c0.4-0.1,0.9-0.2,1.5-0.3V48.3
		c-0.6-0.1-1.2-0.2-1.5-0.3c-0.4-0.1-0.6-0.1-0.8-0.1c-0.1,0-0.2,0-0.3-0.1c-0.9-0.2-1.3-0.7-1.3-1.6v-3h3.9h6.4V58
		c1-1,2.2-1.8,3.4-2.4c1.2-0.6,2.7-0.9,4.4-0.9c1.5,0,2.7,0.2,3.9,0.7c1.1,0.5,2.1,1.2,2.8,2.1c0.8,0.9,1.3,2,1.7,3.2
		c0.4,1.2,0.6,2.6,0.6,4.1v11.8c0.6,0.1,1.2,0.2,1.5,0.3c0.4,0.1,0.6,0.1,0.8,0.1c0.1,0,0.2,0,0.3,0.1
		C569.1,77.2,569.5,77.7,569.5,78.6z"/>
	<path fill="#3D4652" d="M588.6,55.5c1.4,0.5,2.6,1.3,3.6,2.3c1,1,1.8,2.3,2.4,3.8c0.6,1.5,0.9,3.2,0.9,5.1c0,0.5,0,0.9-0.1,1.2
		c0,0.3-0.1,0.6-0.2,0.8c-0.1,0.2-0.3,0.3-0.5,0.4c-0.2,0.1-0.4,0.1-0.7,0.1h-16.4c0.2,2.7,0.9,4.7,2.2,6c1.3,1.3,3,1.9,5.1,1.9
		c1,0,1.9-0.1,2.7-0.4c0.8-0.2,1.4-0.5,2-0.8c0.6-0.3,1.1-0.6,1.5-0.8c0.4-0.2,0.8-0.4,1.2-0.4c0.3,0,0.5,0.1,0.7,0.2
		c0.2,0.1,0.4,0.3,0.5,0.4l1.9,2.3c-0.7,0.8-1.5,1.5-2.4,2.1c-0.9,0.6-1.8,1-2.8,1.3c-1,0.3-1.9,0.6-2.9,0.7c-1,0.1-2,0.2-2.9,0.2
		c-1.9,0-3.6-0.3-5.2-0.9s-3-1.5-4.2-2.7c-1.2-1.2-2.1-2.7-2.8-4.5c-0.7-1.8-1-3.8-1-6.2c0-1.8,0.3-3.5,0.9-5.1
		c0.6-1.6,1.4-3,2.5-4.2c1.1-1.2,2.4-2.1,4-2.8c1.6-0.7,3.4-1,5.4-1C585.7,54.7,587.2,54.9,588.6,55.5z M579.8,60.8
		c-1.1,1.1-1.7,2.6-2,4.5h12c0-0.8-0.1-1.6-0.3-2.3c-0.2-0.7-0.6-1.4-1-1.9c-0.5-0.6-1.1-1-1.8-1.3c-0.7-0.3-1.5-0.5-2.5-0.5
		C582.3,59.3,580.8,59.8,579.8,60.8z"/>
	<path fill="#3D4652" d="M618.3,55.5l-0.8,4.8c-0.1,0.3-0.2,0.5-0.3,0.7c-0.2,0.1-0.4,0.2-0.7,0.2c-0.3,0-0.6-0.1-1.1-0.2
		c-0.5-0.1-1-0.2-1.8-0.2c-1.3,0-2.5,0.4-3.4,1.1c-1,0.7-1.8,1.8-2.4,3.2v11.4c2.2,0.4,2.2,0.4,2.6,0.5c0.9,0.2,1.3,0.7,1.3,1.6v3
		h-3.9h0h-6.4h-3.9v-3c0-0.9,0.4-1.4,1.3-1.6c0.4-0.1,0.4-0.1,2.6-0.5V60.2c-2.2-0.4-2.2-0.4-2.6-0.5c-0.9-0.2-1.3-0.7-1.3-1.6v-3
		h3.9v0h3.8c0.7,0,1.1,0.1,1.4,0.4c0.3,0.2,0.4,0.7,0.5,1.2l0.4,3.2c1-1.6,2.1-2.9,3.3-3.9c1.3-1,2.7-1.4,4.3-1.4
		C616.3,54.6,617.4,54.9,618.3,55.5z"/>
	<path fill="#3D4652" d="M637.2,55.5c1.4,0.5,2.6,1.3,3.6,2.3c1,1,1.8,2.3,2.4,3.8c0.6,1.5,0.9,3.2,0.9,5.1c0,0.5,0,0.9-0.1,1.2
		c0,0.3-0.1,0.6-0.2,0.8c-0.1,0.2-0.3,0.3-0.5,0.4c-0.2,0.1-0.4,0.1-0.7,0.1h-16.4c0.2,2.7,0.9,4.7,2.2,6c1.3,1.3,3,1.9,5.1,1.9
		c1,0,1.9-0.1,2.7-0.4c0.8-0.2,1.4-0.5,2-0.8c0.6-0.3,1.1-0.6,1.5-0.8c0.4-0.2,0.8-0.4,1.2-0.4c0.3,0,0.5,0.1,0.7,0.2
		c0.2,0.1,0.4,0.3,0.5,0.4l1.9,2.3c-0.7,0.8-1.5,1.5-2.4,2.1c-0.9,0.6-1.8,1-2.8,1.3c-1,0.3-1.9,0.6-2.9,0.7c-1,0.1-2,0.2-2.9,0.2
		c-1.9,0-3.6-0.3-5.2-0.9c-1.6-0.6-3-1.5-4.2-2.7c-1.2-1.2-2.1-2.7-2.8-4.5c-0.7-1.8-1-3.8-1-6.2c0-1.8,0.3-3.5,0.9-5.1
		c0.6-1.6,1.4-3,2.5-4.2c1.1-1.2,2.4-2.1,4-2.8c1.6-0.7,3.4-1,5.4-1C634.2,54.7,635.8,54.9,637.2,55.5z M628.3,60.8
		c-1.1,1.1-1.7,2.6-2,4.5h12c0-0.8-0.1-1.6-0.3-2.3c-0.2-0.7-0.6-1.4-1-1.9c-0.5-0.6-1.1-1-1.8-1.3c-0.7-0.3-1.5-0.5-2.5-0.5
		C630.8,59.3,629.3,59.8,628.3,60.8z"/>
</g>
<g>
	<path fill="#3D4652" d="M183.2,108c-1.5,1.5-3.2,2.1-5.2,2.1c-2,0-3.7-0.7-5-2c-1.9-1.9-1.8-4.2-1.8-7.4c0-3.2-0.1-5.5,1.8-7.4
		c1.3-1.3,2.9-2,5-2c4.3,0,6.5,2.8,7,5.9h-3.6c-0.4-1.7-1.5-2.7-3.3-2.7c-1,0-1.8,0.4-2.3,1c-0.7,0.8-0.9,1.6-0.9,5.2
		c0,3.6,0.2,4.4,0.9,5.2c0.5,0.6,1.3,1,2.3,1c1.1,0,2-0.4,2.6-1c0.6-0.7,0.8-1.5,0.8-2.5v-0.7H178v-3h7v2.7
		C184.9,105.1,184.5,106.7,183.2,108z"/>
	<path fill="#3D4652" d="M195.3,110v-1.2c-0.9,0.9-1.8,1.3-3.3,1.3c-1.5,0-2.6-0.4-3.4-1.2c-0.7-0.8-1.1-1.8-1.1-3
		c0-2.2,1.5-3.9,4.6-3.9h3.2v-0.7c0-1.5-0.7-2.1-2.5-2.1c-1.3,0-1.9,0.3-2.6,1.1l-2.2-2.1c1.3-1.5,2.6-1.9,4.9-1.9
		c3.8,0,5.8,1.6,5.8,4.8v8.9H195.3z M195.2,104.3h-2.7c-1.2,0-1.9,0.6-1.9,1.5c0,0.9,0.6,1.6,1.9,1.6c0.9,0,1.5-0.1,2.1-0.6
		c0.4-0.3,0.5-0.9,0.5-1.7V104.3z"/>
	<path fill="#3D4652" d="M217.9,110v-8.2c0-1.8-1.2-2.5-2.2-2.5c-1,0-2.3,0.6-2.3,2.4v8.2h-3.4v-8.2c0-1.8-1.2-2.5-2.2-2.5
		c-1.1,0-2.3,0.6-2.3,2.5v8.2h-3.4V96.5h3.3v1.2c0.9-0.9,2.1-1.4,3.4-1.4c1.5,0,2.7,0.5,3.6,1.7c1.1-1.2,2.4-1.7,4-1.7
		c1.3,0,2.6,0.4,3.3,1.2c1.1,1.1,1.5,2.4,1.5,3.8v8.6H217.9z"/>
	<path fill="#3D4652" d="M227.6,104.3c0,1.7,1.1,3,3,3c1.5,0,2.2-0.4,3.1-1.3l2,2c-1.4,1.4-2.7,2.1-5.1,2.1c-3.2,0-6.3-1.5-6.3-6.9
		c0-4.4,2.4-6.9,5.9-6.9c3.8,0,5.9,2.7,5.9,6.5v1.5H227.6z M232.4,100.5c-0.4-0.8-1.1-1.4-2.3-1.4c-1.1,0-1.9,0.6-2.3,1.4
		c-0.2,0.5-0.3,0.9-0.3,1.5h5.1C232.7,101.4,232.6,101,232.4,100.5z"/>
	<path fill="#3D4652" d="M243.6,110.1c-2.1,0-4-0.2-5.8-1.9l2.2-2.2c1.1,1.1,2.6,1.3,3.6,1.3c1.2,0,2.4-0.4,2.4-1.4
		c0-0.7-0.4-1.1-1.4-1.2l-2.1-0.2c-2.4-0.2-3.9-1.3-3.9-3.8c0-2.8,2.5-4.3,5.2-4.3c2.1,0,3.9,0.4,5.2,1.6l-2.1,2.1
		c-0.8-0.7-2-0.9-3.1-0.9c-1.3,0-1.9,0.6-1.9,1.3c0,0.5,0.2,1.1,1.4,1.2l2.1,0.2c2.7,0.3,4,1.7,4,4
		C249.3,108.7,246.8,110.1,243.6,110.1z"/>
	<path fill="#3D4652" d="M262.4,110c-2.7,0-3.9-1.9-3.9-3.9v-6.7H257v-2.6h1.4v-4h3.4v4h2.4v2.6h-2.4v6.5c0,0.8,0.4,1.2,1.2,1.2h1.2
		v2.9H262.4z"/>
	<path fill="#3D4652" d="M275,110v-8.2c0-1.8-1.1-2.4-2.2-2.4c-1.1,0-2.2,0.6-2.2,2.4v8.2h-3.4V91.5h3.4v6.2c0.9-0.9,2-1.4,3.2-1.4
		c3,0,4.5,2.1,4.5,4.9v8.7H275z"/>
	<path fill="#3D4652" d="M289,110v-1.2c-0.9,0.9-1.8,1.3-3.3,1.3c-1.5,0-2.6-0.4-3.4-1.2c-0.7-0.8-1.1-1.8-1.1-3
		c0-2.2,1.5-3.9,4.6-3.9h3.2v-0.7c0-1.5-0.7-2.1-2.5-2.1c-1.3,0-1.9,0.3-2.6,1.1l-2.2-2.1c1.3-1.5,2.6-1.9,4.9-1.9
		c3.8,0,5.8,1.6,5.8,4.8v8.9H289z M288.9,104.3h-2.7c-1.2,0-1.9,0.6-1.9,1.5c0,0.9,0.6,1.6,1.9,1.6c0.9,0,1.5-0.1,2.1-0.6
		c0.4-0.3,0.5-0.9,0.5-1.7V104.3z"/>
	<path fill="#3D4652" d="M300.1,110c-2.8,0-3.9-1.9-3.9-3.9v-6.7h-1.4v-2.6h1.4v-4h3.4v4h2.4v2.6h-2.4v6.5c0,0.8,0.4,1.2,1.2,1.2
		h1.2v2.9H300.1z"/>
	<path fill="#3D4652" d="M326.7,110v-8.2c0-1.8-1.2-2.5-2.2-2.5c-1,0-2.3,0.6-2.3,2.4v8.2h-3.4v-8.2c0-1.8-1.2-2.5-2.2-2.5
		c-1.1,0-2.3,0.6-2.3,2.5v8.2H311V96.5h3.3v1.2c0.9-0.9,2.1-1.4,3.4-1.4c1.5,0,2.7,0.5,3.6,1.7c1.1-1.2,2.4-1.7,4-1.7
		c1.3,0,2.6,0.4,3.3,1.2c1.1,1.1,1.5,2.4,1.5,3.8v8.6H326.7z"/>
	<path fill="#3D4652" d="M343.1,108.5c-0.8,0.9-2.2,1.7-4.2,1.7c-2,0-3.3-0.8-4.2-1.7c-1.2-1.3-1.5-2.8-1.5-5.3c0-2.4,0.3-4,1.5-5.2
		c0.8-0.9,2.2-1.7,4.2-1.7c2,0,3.4,0.8,4.2,1.7c1.2,1.3,1.5,2.8,1.5,5.2C344.6,105.7,344.3,107.2,343.1,108.5z M340.5,99.9
		c-0.4-0.4-0.9-0.6-1.6-0.6s-1.2,0.2-1.6,0.6c-0.7,0.7-0.8,1.9-0.8,3.3c0,1.4,0.1,2.6,0.8,3.3c0.4,0.4,0.9,0.6,1.6,0.6
		s1.2-0.2,1.6-0.6c0.7-0.7,0.8-1.9,0.8-3.3C341.2,101.8,341.2,100.6,340.5,99.9z"/>
	<path fill="#3D4652" d="M353.4,110h-2.6l-5-13.5h3.6l2.8,8.4l2.7-8.4h3.6L353.4,110z"/>
	<path fill="#3D4652" d="M362.7,104.3c0,1.7,1.1,3,3,3c1.5,0,2.2-0.4,3.1-1.3l2,2c-1.4,1.4-2.7,2.1-5.1,2.1c-3.2,0-6.3-1.5-6.3-6.9
		c0-4.4,2.4-6.9,5.9-6.9c3.8,0,5.9,2.7,5.9,6.5v1.5H362.7z M367.6,100.5c-0.4-0.8-1.1-1.4-2.3-1.4s-1.9,0.6-2.3,1.4
		c-0.2,0.5-0.3,0.9-0.3,1.5h5.1C367.9,101.4,367.8,101,367.6,100.5z"/>
	<path fill="#3D4652" d="M385.4,112.2c-0.3,0.8-0.6,1.3-1,1.7c-0.8,0.8-1.8,1-2.9,1h-1.3v-3h0.8c1,0,1.3-0.2,1.7-1.2l0.6-1.7
		l-4.6-12.6h3.6l2.8,8.4l2.7-8.4h3.6L385.4,112.2z"/>
	<path fill="#3D4652" d="M402.2,108.5c-0.8,0.9-2.2,1.7-4.2,1.7c-2,0-3.3-0.8-4.2-1.7c-1.2-1.3-1.5-2.8-1.5-5.3c0-2.4,0.3-4,1.5-5.2
		c0.8-0.9,2.2-1.7,4.2-1.7c2,0,3.4,0.8,4.2,1.7c1.2,1.3,1.5,2.8,1.5,5.2C403.8,105.7,403.4,107.2,402.2,108.5z M399.6,99.9
		c-0.4-0.4-0.9-0.6-1.6-0.6c-0.7,0-1.2,0.2-1.6,0.6c-0.7,0.7-0.8,1.9-0.8,3.3c0,1.4,0.1,2.6,0.8,3.3c0.4,0.4,0.9,0.6,1.6,0.6
		c0.7,0,1.2-0.2,1.6-0.6c0.7-0.7,0.8-1.9,0.8-3.3C400.4,101.8,400.3,100.6,399.6,99.9z"/>
	<path fill="#3D4652" d="M414.8,110v-1.2c-0.9,0.9-2.1,1.4-3.4,1.4c-1.3,0-2.4-0.4-3.2-1.2c-1.1-1.1-1.4-2.4-1.4-3.8v-8.6h3.4v8.2
		c0,1.8,1.2,2.5,2.2,2.5c1.1,0,2.3-0.6,2.3-2.5v-8.2h3.4V110H414.8z"/>
	<path fill="#3D4652" d="M432.2,104.2h-2.5l-0.8-12.7h4.2L432.2,104.2z M429.1,110v-3.5h3.6v3.5H429.1z"/>
</g>
<path fill="#FFFFFF" stroke="#FFFFFF" stroke-width="4.3229" stroke-miterlimit="10" d="M70.1,72.6c0,10.3-5.9,18.6-13.1,18.6
	c-7.2,0-13.1-8.3-13.1-18.6S49.8,54,57,54C64.2,54,70.1,62.3,70.1,72.6z"/>
</svg>
