<?xml version="1.0" encoding="utf-8"?>
<!-- Generator: Adobe Illustrator 16.0.0, SVG Export Plug-In . SVG Version: 6.00 Build 0)  -->
<!DOCTYPE svg PUBLIC "-//W3C//DTD SVG 1.1//EN" "http://www.w3.org/Graphics/SVG/1.1/DTD/svg11.dtd">
<svg version="1.1" id="Calque_1" xmlns="http://www.w3.org/2000/svg" xmlns:xlink="http://www.w3.org/1999/xlink" x="0px" y="0px"
	 width="279.424px" height="279.423px" viewBox="0 0 279.424 279.423" enable-background="new 0 0 279.424 279.423"
	 xml:space="preserve">
<g>
	<g>
		<path fill="#3C86AD" d="M279.424,139.71c0,77.164-62.548,139.713-139.711,139.713C62.548,279.423,0,216.874,0,139.71
			C0,62.549,62.548,0,139.713,0C216.876,0,279.424,62.549,279.424,139.71"/>
		<path fill="none" d="M45.574,167.411c-1.419,4.021-2.582,8.159-3.48,12.395h47.773c1.864-4.464,4.311-8.628,7.246-12.395H45.574z"
			/>
		<path fill="none" d="M120.588,161.327l1.757,3.043l1.757,3.041l2.795,4.842c0.096-0.045,0.196-0.084,0.293-0.127
			c0.234-0.105,0.471-0.207,0.708-0.309c0.194-0.08,0.389-0.158,0.585-0.236c0.24-0.096,0.482-0.187,0.727-0.275
			c0.197-0.072,0.395-0.143,0.594-0.21c0.248-0.087,0.498-0.166,0.748-0.245c0.199-0.062,0.397-0.125,0.598-0.182
			c0.257-0.076,0.516-0.145,0.774-0.213c0.199-0.051,0.397-0.105,0.599-0.152c0.266-0.064,0.533-0.122,0.802-0.18
			c0.198-0.041,0.396-0.086,0.595-0.125c0.276-0.051,0.556-0.097,0.834-0.142c0.195-0.032,0.391-0.067,0.586-0.095
			c0.293-0.043,0.588-0.076,0.882-0.109c0.15-0.016,0.3-0.04,0.45-0.055v-2.188v-3.041v-3.043v-4.518
			c-5.771,0.398-11.239,1.911-16.187,4.337L120.588,161.327z"/>
		<path fill="none" d="M210.683,130.456H68.741c-3.792,3.84-7.274,7.982-10.409,12.391h162.76
			C217.957,138.438,214.475,134.296,210.683,130.456z"/>
		<path fill="none" d="M40.049,195.465h45.916c0.309-3.284,0.908-6.483,1.78-9.573h-46.75
			C40.53,189.038,40.211,192.231,40.049,195.465z"/>
		<path fill="none" d="M123.839,148.933H54.332c-2.402,3.961-4.536,8.1-6.378,12.395h54.689
			C108.594,155.698,115.821,151.404,123.839,148.933z"/>
		<path fill="none" d="M142.756,161.327v3.043v3.041v2.188c0.147,0.015,0.293,0.037,0.441,0.055
			c0.297,0.033,0.596,0.066,0.892,0.109c0.192,0.027,0.382,0.061,0.573,0.093c0.283,0.046,0.566,0.093,0.848,0.144
			c0.194,0.039,0.387,0.082,0.58,0.123c0.273,0.058,0.548,0.117,0.819,0.182c0.193,0.047,0.386,0.1,0.579,0.149
			c0.266,0.069,0.531,0.14,0.795,0.217c0.192,0.058,0.384,0.117,0.576,0.176c0.259,0.083,0.517,0.165,0.772,0.253
			c0.19,0.064,0.38,0.133,0.568,0.201c0.253,0.092,0.505,0.188,0.755,0.287c0.187,0.072,0.371,0.148,0.556,0.225
			c0.208,0.087,0.415,0.176,0.62,0.266l2.684-4.666l1.75-3.041l1.749-3.043l0.216-0.376c-4.838-2.31-10.162-3.755-15.773-4.142
			V161.327z"/>
		<path fill="none" d="M139.713,100.745c-11.059,0-21.699,1.812-31.648,5.148h63.297
			C161.412,102.558,150.771,100.745,139.713,100.745z"/>
		<path fill="none" d="M185.68,111.978H93.745c-6.612,3.447-12.789,7.615-18.433,12.395h128.799
			C198.469,119.593,192.291,115.425,185.68,111.978z"/>
		<path fill="none" d="M176.783,161.327h54.687c-1.842-4.295-3.976-8.434-6.378-12.395h-69.504
			C163.605,151.405,170.832,155.696,176.783,161.327z"/>
		<path fill="none" d="M191.675,185.892c0.872,3.09,1.474,6.289,1.781,9.573h45.919c-0.163-3.233-0.481-6.427-0.946-9.573H191.675z"
			/>
		<path fill="none" d="M233.85,167.411h-51.541c2.936,3.767,5.382,7.929,7.246,12.395h47.775
			C236.432,175.57,235.268,171.433,233.85,167.411z"/>
		<path fill="none" d="M179.815,182.849c-0.24-0.541-0.489-1.076-0.751-1.607l-2.771,1.607l-5.249,3.043l-3.239,1.877
			c1.071,2.42,1.842,5,2.257,7.696h13.2c-0.384-3.317-1.145-6.522-2.229-9.573C180.666,184.858,180.256,183.846,179.815,182.849z"/>
		<path fill="none" d="M121.035,175.804c0.204-0.156,0.407-0.314,0.615-0.467l-4.576-7.926l-1.757-3.041l-0.101-0.176
			c-0.086,0.058-0.172,0.115-0.258,0.176c-1.367,0.938-2.674,1.957-3.925,3.041c-2.915,2.527-5.491,5.431-7.658,8.633l6.516,3.762
			l4.701,2.715c0.665-0.943,1.378-1.852,2.142-2.715c1.223-1.377,2.568-2.646,4.018-3.787
			C120.845,175.946,120.941,175.876,121.035,175.804z"/>
		<path fill="none" d="M102.991,182.849l-2.667-1.539c-0.249,0.507-0.487,1.021-0.717,1.539c-0.441,0.997-0.852,2.01-1.219,3.043
			c-1.085,3.051-1.846,6.256-2.229,9.573h13.199c0.413-2.678,1.177-5.243,2.237-7.647l-3.334-1.926L102.991,182.849z"/>
		<path fill="none" d="M176.005,175.983c-2.158-3.18-4.72-6.061-7.616-8.572c-1.25-1.084-2.557-2.104-3.924-3.041
			c-0.211-0.145-0.426-0.282-0.639-0.423l-0.242,0.423l-1.75,3.041l-4.413,7.674c0.048,0.033,0.095,0.067,0.144,0.103
			c0.295,0.213,0.586,0.433,0.873,0.655c0.075,0.057,0.151,0.112,0.226,0.17c1.452,1.143,2.8,2.412,4.024,3.793
			c0.754,0.85,1.455,1.744,2.111,2.673l4.609-2.673L176.005,175.983z"/>
		<path fill="#F5BB3D" d="M150.796,182.849c-0.296-0.191-0.598-0.375-0.904-0.551c-0.073-0.043-0.146-0.086-0.219-0.126
			c-0.173-0.097-0.347-0.188-0.522-0.279c-0.1-0.051-0.2-0.104-0.301-0.153c-0.165-0.083-0.332-0.162-0.499-0.241
			c-0.115-0.053-0.231-0.104-0.347-0.155c-0.162-0.072-0.323-0.143-0.487-0.21c-0.128-0.052-0.257-0.103-0.386-0.152
			c-0.157-0.062-0.314-0.124-0.473-0.181c-0.162-0.059-0.325-0.111-0.488-0.164c-0.221-0.074-0.443-0.145-0.666-0.209
			c-0.194-0.059-0.389-0.115-0.586-0.167c-0.131-0.035-0.265-0.063-0.396-0.096c-0.178-0.042-0.355-0.085-0.535-0.124
			c-0.135-0.028-0.271-0.055-0.408-0.08c-0.18-0.035-0.361-0.066-0.543-0.098c-0.123-0.02-0.246-0.038-0.369-0.057
			c-0.013-0.002-0.024-0.004-0.037-0.004c-0.189-0.027-0.382-0.053-0.574-0.074c-0.128-0.015-0.256-0.029-0.386-0.041
			c-0.214-0.02-0.43-0.037-0.646-0.051c-0.109-0.006-0.217-0.014-0.326-0.021c-0.326-0.014-0.654-0.023-0.984-0.023
			s-0.658,0.01-0.984,0.023c-0.108,0.008-0.217,0.016-0.325,0.021c-0.217,0.014-0.433,0.029-0.647,0.051
			c-0.128,0.012-0.255,0.026-0.383,0.041c-0.193,0.021-0.387,0.047-0.579,0.074c-0.012,0-0.022,0.002-0.034,0.004
			c-0.123,0.019-0.244,0.037-0.365,0.057c-0.186,0.029-0.369,0.062-0.553,0.1c-0.133,0.023-0.267,0.049-0.398,0.078
			c-0.186,0.039-0.369,0.082-0.553,0.127c-0.126,0.031-0.253,0.058-0.378,0.092c-0.215,0.055-0.428,0.117-0.64,0.182
			c-0.177,0.053-0.352,0.105-0.526,0.163c-0.197,0.064-0.394,0.129-0.588,0.199c-0.144,0.052-0.287,0.108-0.431,0.164
			s-0.287,0.11-0.43,0.169c-0.153,0.064-0.305,0.129-0.457,0.196c-0.127,0.058-0.254,0.113-0.38,0.171
			c-0.157,0.074-0.315,0.15-0.47,0.229c-0.113,0.057-0.226,0.113-0.338,0.172c-0.164,0.085-0.327,0.172-0.488,0.261
			c-0.091,0.05-0.18,0.102-0.27,0.154c-0.179,0.103-0.357,0.205-0.531,0.312c-0.019,0.012-0.036,0.023-0.055,0.035
			c-0.096,0.059-0.189,0.122-0.284,0.183c-0.838,0.539-1.636,1.135-2.386,1.786c-0.005,0.005-0.01,0.009-0.015,0.015
			c-0.452,0.395-0.887,0.811-1.303,1.242c-2.518,2.615-4.354,5.9-5.208,9.573h39.995c-0.856-3.673-2.692-6.958-5.21-9.573
			C153.391,184.737,152.146,183.718,150.796,182.849z"/>
	</g>
	<g>
		<path fill="none" d="M123.839,148.933H54.332c-2.402,3.961-4.536,8.1-6.378,12.395h54.689
			C108.594,155.698,115.821,151.404,123.839,148.933z"/>
		<path fill="none" d="M40.049,195.465h45.916c0.309-3.284,0.908-6.483,1.78-9.573h-46.75
			C40.53,189.038,40.211,192.231,40.049,195.465z"/>
		<path fill="none" d="M120.588,161.327l1.757,3.043l1.757,3.041l2.795,4.842c0.096-0.045,0.196-0.084,0.293-0.127
			c0.234-0.105,0.471-0.207,0.708-0.309c0.194-0.08,0.389-0.158,0.585-0.236c0.24-0.096,0.482-0.187,0.727-0.275
			c0.197-0.072,0.395-0.143,0.594-0.21c0.248-0.087,0.498-0.166,0.748-0.245c0.199-0.062,0.397-0.125,0.598-0.182
			c0.257-0.076,0.516-0.145,0.774-0.213c0.199-0.051,0.397-0.105,0.599-0.152c0.266-0.064,0.533-0.122,0.802-0.18
			c0.198-0.041,0.396-0.086,0.595-0.125c0.276-0.051,0.556-0.097,0.834-0.142c0.195-0.032,0.391-0.067,0.586-0.095
			c0.293-0.043,0.588-0.076,0.882-0.109c0.15-0.016,0.3-0.04,0.45-0.055v-2.188v-3.041v-3.043v-4.518
			c-5.771,0.398-11.239,1.911-16.187,4.337L120.588,161.327z"/>
		<path fill="none" d="M210.683,130.456H68.741c-3.792,3.84-7.274,7.982-10.409,12.391h162.76
			C217.957,138.438,214.475,134.296,210.683,130.456z"/>
		<path fill="none" d="M139.713,100.745c-11.059,0-21.699,1.812-31.648,5.148h63.297
			C161.412,102.558,150.771,100.745,139.713,100.745z"/>
		<path fill="none" d="M176.783,161.327h54.687c-1.842-4.295-3.976-8.434-6.378-12.395h-69.504
			C163.605,151.405,170.832,155.696,176.783,161.327z"/>
		<path fill="none" d="M142.756,161.327v3.043v3.041v2.188c0.147,0.015,0.293,0.037,0.441,0.055
			c0.297,0.033,0.596,0.066,0.892,0.109c0.192,0.027,0.382,0.061,0.573,0.093c0.283,0.046,0.566,0.093,0.848,0.144
			c0.194,0.039,0.387,0.082,0.58,0.123c0.273,0.058,0.548,0.117,0.819,0.182c0.193,0.047,0.386,0.1,0.579,0.149
			c0.266,0.069,0.531,0.14,0.795,0.217c0.192,0.058,0.384,0.117,0.576,0.176c0.259,0.083,0.517,0.165,0.772,0.253
			c0.19,0.064,0.38,0.133,0.568,0.201c0.253,0.092,0.505,0.188,0.755,0.287c0.187,0.072,0.371,0.148,0.556,0.225
			c0.208,0.087,0.415,0.176,0.62,0.266l2.684-4.666l1.75-3.041l1.749-3.043l0.216-0.376c-4.838-2.31-10.162-3.755-15.773-4.142
			V161.327z"/>
		<path fill="none" d="M45.574,167.411c-1.419,4.021-2.582,8.159-3.48,12.395h47.773c1.864-4.464,4.311-8.628,7.246-12.395H45.574z"
			/>
		<path fill="none" d="M185.68,111.978H93.745c-6.612,3.447-12.789,7.615-18.433,12.395h128.799
			C198.469,119.593,192.291,115.425,185.68,111.978z"/>
		<path fill="none" d="M121.035,175.804c0.204-0.156,0.407-0.314,0.615-0.467l-4.576-7.926l-1.757-3.041l-0.101-0.176
			c-0.086,0.058-0.172,0.115-0.258,0.176c-1.367,0.938-2.674,1.957-3.925,3.041c-2.915,2.527-5.491,5.431-7.658,8.633l6.516,3.762
			l4.701,2.715c0.665-0.943,1.378-1.852,2.142-2.715c1.223-1.377,2.568-2.646,4.018-3.787
			C120.845,175.946,120.941,175.876,121.035,175.804z"/>
		<path fill="none" d="M191.675,185.892c0.872,3.09,1.474,6.289,1.781,9.573h45.919c-0.163-3.233-0.481-6.427-0.946-9.573H191.675z"
			/>
		<path fill="none" d="M233.85,167.411h-51.541c2.936,3.767,5.382,7.929,7.246,12.395h47.775
			C236.432,175.57,235.268,171.433,233.85,167.411z"/>
		<path fill="none" d="M102.991,182.849l-2.667-1.539c-0.249,0.507-0.487,1.021-0.717,1.539c-0.441,0.997-0.852,2.01-1.219,3.043
			c-1.085,3.051-1.846,6.256-2.229,9.573h13.199c0.413-2.678,1.177-5.243,2.237-7.647l-3.334-1.926L102.991,182.849z"/>
		<path fill="none" d="M176.005,175.983c-2.158-3.18-4.72-6.061-7.616-8.572c-1.25-1.084-2.557-2.104-3.924-3.041
			c-0.211-0.145-0.426-0.282-0.639-0.423l-0.242,0.423l-1.75,3.041l-4.413,7.674c0.048,0.033,0.095,0.067,0.144,0.103
			c0.295,0.213,0.586,0.433,0.873,0.655c0.075,0.057,0.151,0.112,0.226,0.17c1.452,1.143,2.8,2.412,4.024,3.793
			c0.754,0.85,1.455,1.744,2.111,2.673l4.609-2.673L176.005,175.983z"/>
		<path fill="none" d="M179.815,182.849c-0.24-0.541-0.489-1.076-0.751-1.607l-2.771,1.607l-5.249,3.043l-3.239,1.877
			c1.071,2.42,1.842,5,2.257,7.696h13.2c-0.384-3.317-1.145-6.522-2.229-9.573C180.666,184.858,180.256,183.846,179.815,182.849z"/>
		<path fill="none" d="M150.796,182.849c-0.296-0.191-0.598-0.375-0.904-0.551c-0.073-0.043-0.146-0.086-0.219-0.126
			c-0.173-0.097-0.347-0.188-0.522-0.279c-0.1-0.051-0.2-0.104-0.301-0.153c-0.165-0.083-0.332-0.162-0.499-0.241
			c-0.115-0.053-0.231-0.104-0.347-0.155c-0.162-0.072-0.323-0.143-0.487-0.21c-0.128-0.052-0.257-0.103-0.386-0.152
			c-0.157-0.062-0.314-0.124-0.473-0.181c-0.162-0.059-0.325-0.111-0.488-0.164c-0.221-0.074-0.443-0.145-0.666-0.209
			c-0.194-0.059-0.389-0.115-0.586-0.167c-0.131-0.035-0.265-0.063-0.396-0.096c-0.178-0.042-0.355-0.085-0.535-0.124
			c-0.135-0.028-0.271-0.055-0.408-0.08c-0.18-0.035-0.361-0.066-0.543-0.098c-0.123-0.02-0.246-0.038-0.369-0.057
			c-0.013-0.002-0.024-0.004-0.037-0.004c-0.189-0.027-0.382-0.053-0.574-0.074c-0.128-0.015-0.256-0.029-0.386-0.041
			c-0.214-0.02-0.43-0.037-0.646-0.051c-0.109-0.006-0.217-0.014-0.326-0.021c-0.326-0.014-0.654-0.023-0.984-0.023
			s-0.658,0.01-0.984,0.023c-0.108,0.008-0.217,0.016-0.325,0.021c-0.217,0.014-0.433,0.029-0.647,0.051
			c-0.128,0.012-0.255,0.026-0.383,0.041c-0.193,0.021-0.387,0.047-0.579,0.074c-0.012,0-0.022,0.002-0.034,0.004
			c-0.123,0.019-0.244,0.037-0.365,0.057c-0.186,0.029-0.369,0.062-0.553,0.1c-0.133,0.023-0.267,0.049-0.398,0.078
			c-0.186,0.039-0.369,0.082-0.553,0.127c-0.126,0.031-0.253,0.058-0.378,0.092c-0.215,0.055-0.428,0.117-0.64,0.182
			c-0.177,0.053-0.352,0.105-0.526,0.163c-0.197,0.064-0.394,0.129-0.588,0.199c-0.144,0.052-0.287,0.108-0.431,0.164
			s-0.287,0.11-0.43,0.169c-0.153,0.064-0.305,0.129-0.457,0.196c-0.127,0.058-0.254,0.113-0.38,0.171
			c-0.157,0.074-0.315,0.15-0.47,0.229c-0.113,0.057-0.226,0.113-0.338,0.172c-0.164,0.085-0.327,0.172-0.488,0.261
			c-0.091,0.05-0.18,0.102-0.27,0.154c-0.179,0.103-0.357,0.205-0.531,0.312c-0.019,0.012-0.036,0.023-0.055,0.035
			c-0.096,0.059-0.189,0.122-0.284,0.183c-0.838,0.539-1.636,1.135-2.386,1.786c-0.005,0.005-0.01,0.009-0.015,0.015
			c-0.452,0.395-0.887,0.811-1.303,1.242c-2.518,2.615-4.354,5.9-5.208,9.573h39.995c-0.856-3.673-2.692-6.958-5.21-9.573
			C153.391,184.737,152.146,183.718,150.796,182.849z"/>
		<path fill="#F5BB3D" d="M142.756,68.089c0.008,0,0.016,0.002,0.023,0.002h19.29c3.347,0,3.735-1.408,0.865-3.129l-21.021-12.59
			c-2.871-1.721-5.221-0.391-5.221,2.957v2.975c-0.014,0.119-0.023,0.239-0.023,0.362v31.981h6.086V68.089z"/>
		<path fill="#FFFFFF" d="M217.446,122.802c-20.045-20.045-46.467-31.393-74.69-32.154h-6.086
			c-28.225,0.762-54.646,12.109-74.691,32.154c-20.764,20.764-32.199,48.371-32.199,77.735c0,2.8,2.271,5.07,5.071,5.07h55.946
			h23.295h0.244h50.752h0.244h23.293h0.01h55.938c2.801,0,5.071-2.271,5.071-5.07C249.645,171.173,238.209,143.565,217.446,122.802z
			 M231.47,161.327h-54.687c-5.951-5.631-13.178-9.922-21.195-12.395h69.504C227.494,152.894,229.628,157.032,231.47,161.327z
			 M158.529,160.951l-0.216,0.376l-1.749,3.043l-1.75,3.041l-2.684,4.666c-0.205-0.09-0.412-0.179-0.62-0.266
			c-0.185-0.076-0.369-0.152-0.556-0.225c-0.25-0.1-0.502-0.195-0.755-0.287c-0.188-0.068-0.378-0.137-0.568-0.201
			c-0.256-0.088-0.514-0.17-0.772-0.253c-0.192-0.059-0.384-0.118-0.576-0.176c-0.264-0.077-0.529-0.147-0.795-0.217
			c-0.193-0.05-0.386-0.103-0.579-0.149c-0.271-0.064-0.546-0.124-0.819-0.182c-0.193-0.041-0.386-0.084-0.58-0.123
			c-0.281-0.051-0.564-0.098-0.848-0.144c-0.191-0.032-0.381-0.065-0.573-0.093c-0.296-0.043-0.595-0.076-0.892-0.109
			c-0.148-0.018-0.294-0.04-0.441-0.055v-2.188v-3.041v-3.043v-4.518C148.367,157.196,153.691,158.642,158.529,160.951z
			 M139.713,100.745c11.059,0,21.699,1.812,31.648,5.148h-63.297C118.014,102.558,128.654,100.745,139.713,100.745z M93.745,111.978
			h91.935c6.611,3.447,12.789,7.615,18.432,12.395H75.312C80.956,119.593,87.133,115.425,93.745,111.978z M68.741,130.456h141.941
			c3.792,3.84,7.274,7.982,10.409,12.391H58.332C61.467,138.438,64.949,134.296,68.741,130.456z M54.332,148.933h69.507
			c-8.018,2.472-15.245,6.766-21.195,12.395H47.954C49.796,157.032,51.93,152.894,54.332,148.933z M136.67,156.81v4.518v3.043v3.041
			v2.188c-0.15,0.015-0.3,0.039-0.45,0.055c-0.294,0.033-0.589,0.066-0.882,0.109c-0.195,0.027-0.391,0.062-0.586,0.095
			c-0.278,0.045-0.558,0.091-0.834,0.142c-0.199,0.039-0.396,0.084-0.595,0.125c-0.269,0.058-0.536,0.115-0.802,0.18
			c-0.201,0.047-0.399,0.102-0.599,0.152c-0.259,0.068-0.518,0.137-0.774,0.213c-0.2,0.057-0.398,0.119-0.598,0.182
			c-0.25,0.079-0.5,0.158-0.748,0.245c-0.199,0.067-0.396,0.138-0.594,0.21c-0.244,0.089-0.486,0.18-0.727,0.275
			c-0.196,0.078-0.391,0.156-0.585,0.236c-0.237,0.102-0.474,0.203-0.708,0.309c-0.097,0.043-0.197,0.082-0.293,0.127l-2.795-4.842
			l-1.757-3.041l-1.757-3.043l-0.104-0.181C125.431,158.721,130.898,157.208,136.67,156.81z M85.965,195.465H40.049
			c0.162-3.233,0.481-6.427,0.946-9.573h46.75C86.873,188.981,86.273,192.181,85.965,195.465z M89.867,179.806H42.094
			c0.898-4.235,2.062-8.373,3.48-12.395h51.539C94.178,171.178,91.731,175.342,89.867,179.806z M109.358,195.465H96.159
			c0.384-3.317,1.145-6.522,2.229-9.573c0.367-1.033,0.777-2.046,1.219-3.043c0.229-0.519,0.468-1.032,0.717-1.539l2.667,1.539
			l5.271,3.043l3.334,1.926C110.535,190.222,109.771,192.787,109.358,195.465z M116.734,179.806
			c-0.764,0.863-1.477,1.771-2.142,2.715l-4.701-2.715l-6.516-3.762c2.167-3.202,4.743-6.105,7.658-8.633
			c1.251-1.084,2.558-2.104,3.925-3.041c0.086-0.061,0.172-0.118,0.258-0.176l0.101,0.176l1.757,3.041l4.576,7.926
			c-0.208,0.152-0.411,0.311-0.615,0.467c-0.094,0.072-0.19,0.143-0.283,0.215C119.303,177.159,117.957,178.429,116.734,179.806z
			 M119.715,195.465c0.854-3.673,2.69-6.958,5.208-9.573c0.416-0.432,0.851-0.848,1.303-1.242c0.005-0.006,0.01-0.01,0.015-0.015
			c0.75-0.651,1.548-1.247,2.386-1.786c0.095-0.061,0.188-0.124,0.284-0.183c0.019-0.012,0.036-0.023,0.055-0.035
			c0.174-0.107,0.353-0.21,0.531-0.312c0.09-0.053,0.179-0.104,0.27-0.154c0.161-0.089,0.324-0.176,0.488-0.261
			c0.112-0.059,0.225-0.115,0.338-0.172c0.154-0.078,0.312-0.154,0.47-0.229c0.126-0.058,0.253-0.113,0.38-0.171
			c0.152-0.067,0.304-0.132,0.457-0.196c0.143-0.059,0.286-0.113,0.43-0.169s0.287-0.112,0.431-0.164
			c0.194-0.07,0.391-0.135,0.588-0.199c0.175-0.058,0.35-0.11,0.526-0.163c0.212-0.064,0.425-0.127,0.64-0.182
			c0.125-0.034,0.252-0.061,0.378-0.092c0.184-0.045,0.367-0.088,0.553-0.127c0.132-0.029,0.266-0.055,0.398-0.078
			c0.184-0.037,0.367-0.07,0.553-0.1c0.121-0.02,0.242-0.038,0.365-0.057c0.012-0.002,0.022-0.004,0.034-0.004
			c0.192-0.027,0.386-0.053,0.579-0.074c0.128-0.015,0.255-0.029,0.383-0.041c0.215-0.021,0.431-0.037,0.647-0.051
			c0.108-0.006,0.217-0.014,0.325-0.021c0.326-0.014,0.654-0.023,0.984-0.023s0.658,0.01,0.984,0.023
			c0.109,0.008,0.217,0.016,0.326,0.021c0.216,0.014,0.432,0.031,0.646,0.051c0.13,0.012,0.258,0.026,0.386,0.041
			c0.192,0.021,0.385,0.047,0.574,0.074c0.013,0,0.024,0.002,0.037,0.004c0.123,0.019,0.246,0.037,0.369,0.057
			c0.182,0.031,0.363,0.062,0.543,0.098c0.137,0.025,0.273,0.052,0.408,0.08c0.18,0.039,0.357,0.082,0.535,0.124
			c0.132,0.032,0.266,0.061,0.396,0.096c0.197,0.052,0.392,0.108,0.586,0.167c0.223,0.064,0.445,0.135,0.666,0.209
			c0.163,0.053,0.326,0.105,0.488,0.164c0.158,0.057,0.315,0.119,0.473,0.181c0.129,0.05,0.258,0.101,0.386,0.152
			c0.164,0.067,0.325,0.138,0.487,0.21c0.115,0.051,0.231,0.103,0.347,0.155c0.167,0.079,0.334,0.158,0.499,0.241
			c0.101,0.05,0.201,0.103,0.301,0.153c0.176,0.091,0.35,0.183,0.522,0.279c0.073,0.04,0.146,0.083,0.219,0.126
			c0.307,0.176,0.608,0.359,0.904,0.551c1.351,0.869,2.595,1.889,3.704,3.043c2.518,2.615,4.354,5.9,5.21,9.573H119.715z
			 M164.799,182.479c-0.656-0.929-1.357-1.823-2.111-2.673c-1.225-1.381-2.572-2.65-4.024-3.793c-0.074-0.058-0.15-0.113-0.226-0.17
			c-0.287-0.223-0.578-0.442-0.873-0.655c-0.049-0.035-0.096-0.069-0.144-0.103l4.413-7.674l1.75-3.041l0.242-0.423
			c0.213,0.141,0.428,0.278,0.639,0.423c1.367,0.938,2.674,1.957,3.924,3.041c2.896,2.512,5.458,5.393,7.616,8.572l-6.597,3.822
			L164.799,182.479z M170.062,195.465c-0.415-2.696-1.186-5.276-2.257-7.696l3.239-1.877l5.249-3.043l2.771-1.607
			c0.262,0.531,0.511,1.066,0.751,1.607c0.44,0.997,0.851,2.01,1.219,3.043c1.084,3.051,1.845,6.256,2.229,9.573H170.062z
			 M182.309,167.411h51.541c1.418,4.021,2.582,8.159,3.48,12.395h-47.775C187.69,175.34,185.244,171.178,182.309,167.411z
			 M193.456,195.465c-0.308-3.284-0.909-6.483-1.781-9.573h46.754c0.465,3.146,0.783,6.34,0.946,9.573H193.456z"/>
	</g>
</g>
</svg>
