<?xml version="1.0" encoding="utf-8"?>
<!-- Generator: Adobe Illustrator 16.0.0, SVG Export Plug-In . SVG Version: 6.00 Build 0)  -->
<!DOCTYPE svg PUBLIC "-//W3C//DTD SVG 1.1//EN" "http://www.w3.org/Graphics/SVG/1.1/DTD/svg11.dtd">
<svg version="1.1" id="Calque_1" xmlns="http://www.w3.org/2000/svg" xmlns:xlink="http://www.w3.org/1999/xlink" x="0px" y="0px"
	 width="474.675px" height="327.506px" viewBox="258.979 343.281 474.675 327.506"
	 enable-background="new 258.979 343.281 474.675 327.506" xml:space="preserve">
<path fill="none" stroke="#3D4652" stroke-width="14" stroke-linecap="round" stroke-linejoin="round" stroke-miterlimit="10" d="
	M476.421,352l-165.098,62.054c0,0,19.644,107.144,27.218,137.825c7.575,30.68,21.071,46.636,44.307,60.074
	c23.234,13.439,93.573,49.478,93.573,49.478s70.341-36.036,93.575-49.478c23.232-13.438,36.729-29.396,44.305-60.074
	c7.575-30.682,27.22-137.825,27.22-137.825L476.421,352z"/>
<g>
	<path fill="#9C877E" d="M448.822,490.961c11.383,44.947-15.832,90.616-60.783,101.998c-44.953,11.385-90.618-15.828-102-60.777
		c-11.383-44.95,15.828-90.619,60.78-102.001C391.77,418.796,437.438,446.008,448.822,490.961z"/>
	<g>
		<path fill="#FFFFFF" d="M385.887,584.258c-40.194,8.487-81.174-8.152-91.353-53.419c-5.089-22.823-1.529-39.344,8.328-55.398
			c9.856-15.464,26.012-30.46,46.107-36.56c40.195-8.488,81.175,8.151,91.354,53.423c5.089,22.821,1.527,39.341-8.329,55.396
			C422.139,563.162,405.984,578.16,385.887,584.258z"/>
	</g>
	<path fill="#7B6A58" d="M322.225,504.148c0.943,3.719-1.311,7.502-5.029,8.442c-3.721,0.944-7.504-1.309-8.445-5.031
		c-0.942-3.724,1.312-7.506,5.032-8.446C317.5,498.171,321.282,500.425,322.225,504.148z"/>
	<path fill="#7B6A58" d="M408.413,482.322c0.94,3.721-1.308,7.501-5.027,8.442c-3.728,0.944-7.5-1.312-8.441-5.032
		c-0.944-3.723,1.302-7.504,5.027-8.449C403.691,476.341,407.47,478.6,408.413,482.322z"/>
	<circle fill="#E3ADA5" cx="418.271" cy="509.477" r="13.934"/>
	<path fill="#E3ADA5" d="M334.192,530.766c1.889,7.459-2.63,15.04-10.092,16.929c-7.457,1.889-15.036-2.625-16.925-10.085
		c-1.889-7.459,2.629-15.039,10.085-16.929C324.724,518.792,332.304,523.307,334.192,530.766z"/>
	<g>
		<polygon fill="#D94F5C" points="384.401,590.677 335.611,582.135 347.315,609.459 347.989,631.013 386.635,599.5 		"/>
		<polygon fill="#D94F5C" points="390.017,589.254 423.24,559.946 426.532,589.396 435.617,608.82 392.251,598.077 		"/>
		<path fill="#FFFFFF" d="M395.726,592.922c1.439,5.68-1.922,11.432-7.504,12.847c-5.585,1.413-11.276-2.047-12.716-7.726
			c-1.438-5.685,1.92-11.438,7.505-12.854C388.593,583.777,394.287,587.237,395.726,592.922z"/>
	</g>
	<path fill="#EA9D73" d="M385.054,508.387c-0.295-0.899-1.027-1.672-2.05-1.762c-9.292-0.797-18.157-2.629-26.855,1.754
		c-4.795,2.414-10.4,6.393-11.029,12.014c-0.123,0.255-0.191,0.559-0.144,0.972c0.015,0.082,0.042,0.143,0.087,0.194
		c0,0.164-0.01,0.325,0.003,0.492c0.01,0.178,0.258,0.219,0.354,0.087c0.039-0.056,0.086-0.103,0.128-0.159
		c0.021,0.125,0.05,0.246,0.09,0.365c-0.098-0.022-0.192-0.053-0.289-0.065c-0.044-0.002-0.07,0.034-0.069,0.073
		c0.097,2.574,6.062,5.305,7.913,6.545c5.313,3.567,9.459,7.552,15.74,9.484c0.201,0.066,0.399,0.082,0.586,0.08
		c0.935,0.734,2.683,0.398,3.279-0.598c3.003-5.019,5.139-10.603,7.795-15.806c1.757-3.443,6.394-9.02,5.096-12.949
		C385.59,508.805,385.349,508.556,385.054,508.387z"/>
	<path fill="#9C877E" d="M284.886,517.8c-5.461,3.386-9.256,10.194-13.034,15.251c-2.598,3.475-4.29,7.322-5.618,11.313
		c-0.396,0.663-0.779,1.338-1.144,2.025c-6.02,11.312-5.083,24.405-6.097,36.81c-0.237,2.867,2.654,5.096,5.354,3.938
		c13.001-5.564,24.601-15.511,29.321-29.173c3.312-9.594,2.512-24.088-4.992-31.873c0.568-0.473,1.15-0.9,1.745-1.271
		C295.324,521.781,289.722,514.803,284.886,517.8z"/>
	<path fill="#9C877E" d="M514.447,503.408c-19.882-1.678-30.992-26.284-51.076-27.374c-4.782-0.259-28.884,3.682-23.994,12.563
		c0.266,0.481,1.032,0.312,0.954-0.275c-0.197-1.438,0.798-2.223,2.329-2.618c0.558,1.121,1.708,2.122,3.04,2.983
		c-2.168,1.288-3.71,3.722-3.132,6.281c0.868,3.795,3.172,6.347,6.144,7.855c7.708,7.848,15.48,15.683,25.099,21.18
		c11.565,6.609,22.426,3.067,33.309-2.9c1.283-0.702,2.219-1.843,2.791-3.128c2.732-2.239,5.205-4.691,6.958-6.191
		C519.898,509.183,518.729,503.768,514.447,503.408z"/>
	<path fill="#9C877E" d="M344.423,432.817c-17.331,6.122-54.482,37.054-41.574,29.655c30.788-17.637,49.165,11.421,49.165,11.421
		s-9.479-41.794,43.085-34.778C447.665,446.127,362.578,429.955,344.423,432.817z"/>
	<g>
		<g>
			<path fill="#FFFFFF" d="M363.465,403.103c-8.311-3.841-16.155-7.954-23.565-13.043c-13.189-2.018-29.635-0.54-39.777,8.716
				c-8.028,7.327-12.293,17.15-14.775,27.503c0.463,10.056,0.133,20.208-0.295,30.222c-0.455,10.622-2.96,21.75-1.378,32.354
				c0.306,2.05,0.163,4.089-0.438,5.916c0.454,2.641,0.986,5.24,1.616,7.784c0.125,0.5,0.905,0.709,1.085,0.117
				c2.749-8.976,3.427-18.27,3.809-27.621c1.88,0.296,3.847-0.398,5.256-2.618c4.431-6.976,10.583-11.874,16.777-17.2
				c6.557-5.638,13.018-11.067,20.235-15.868c7.216-4.795,15.455-7.879,23.665-10.479c9.896-3.135,18.392-1.751,28.366-0.071
				c3.564,0.602,6.87-3.022,6.817-6.438C382.462,414.935,373.727,407.849,363.465,403.103z"/>
			<path fill="#D94F5C" d="M309.731,376.653c-0.434-1.217-1.029-2.27-1.737-3.177c-2.447-7.054-11.995-8.509-17.814-4.248
				c-3.155,2.309-5.158,5.961-5.764,9.805c-1.868,0.955-2.263,3.499-1.664,5.312c0.605,1.83,1.672,3.478,3.018,4.761
				c0.475,1.198,1.246,2.243,2.317,2.907c0.988,0.614,1.92,0.883,2.784,0.897c0.66,0.349,1.34,0.656,2.033,0.912
				c2.107,0.778,3.993,0.511,5.495-0.365c1.86-0.125,3.72-0.696,5.351-1.605c1.016,0.516,2.19-0.362,2.161-1.537
				c0.37-0.335,0.722-0.682,1.036-1.058c0.969-1.172,1.634-2.531,2.043-3.98C310.304,382.569,310.729,379.464,309.731,376.653z"/>
		</g>
		<g>
			<path fill="#D94F5C" d="M410.33,436.243c-1.098-2.735-2.513-5.065-4.168-7.046c-6.475-9.348-18.5-13.339-31.088-12.633
				c-19.434,1.093-36.49,11.557-51.659,22.967c-11.935,8.977-24.158,18.57-33.473,30.341c-4.214,5.322-6.673,11.755-8.187,18.31
				c-1.206,5.208-1.911,14.127,2.958,17.659c0.371,0.271,0.91,0.192,1.185-0.184c2.756-3.779,2.286-9.551,3.666-13.981
				c1.814-5.813,5.162-10.911,9.283-15.256c9.718-10.245,17.281-17.359,38.701-30.236c21.421-12.876,54.669-18.459,66.223-7.104
				C407.062,442.312,412.047,440.512,410.33,436.243z"/>
			<path fill="#D94F5C" d="M370.53,404.076c-8.163-7.642-19.977-7.247-30.304-5.546c-12.285,2.023-22.936,8.202-32.975,15.264
				c-14.488,10.197-30.519,25.515-23.273,44.879c0.456,1.211,2.309,0.859,2.43-0.373c0.857-8.676,6.221-12.362,11.273-18.603
				c4.428-5.462,10.306-9.894,15.751-14.289c14.667-11.834,35.454-24.567,54.685-16.91
				C370.979,409.637,372.504,405.925,370.53,404.076z"/>
			<path fill="#D94F5C" d="M339.833,390.574c-9.366-7.589-26.164-4.867-35.733,1.126c-10.906,6.832-19.433,17.105-20.412,30.41
				c-0.095,1.301,1.659,1.689,2.177,0.521c4.079-9.149,13.545-15.691,21.602-21.177c4.101-2.796,8.567-5.457,13.126-7.419
				c6.062-2.605,12.497-1.5,18.866-1.944C340.246,392.039,340.359,390.999,339.833,390.574z"/>
		</g>
	</g>
</g>
<g>
	<path fill="#FAC99F" d="M683.1,530.637c-8.98,45.816-53.405,75.681-99.225,66.699c-45.82-8.979-75.682-53.404-66.701-99.219
		c8.98-45.82,53.4-75.685,99.224-66.703C662.215,440.395,692.078,484.819,683.1,530.637z"/>
	<path fill="#459480" d="M526.791,556.383c0,0-64.553,22.904-61.839-14.931c0,0-7.104-23.738,26.773-28.636
		c0,0-30.251-49.601,14.019-59.542c0,0-5.857-54.071,34.479-31.949l15.731,20.61C555.956,441.938,490.932,476.995,526.791,556.383z"
		/>
	<path fill="#459480" d="M662.762,457.579c0,0,69.525-26.452,69.779,12.547c0,0,9.176,23.771-25.161,31.497
		c0,0,34.979,48.426-9.605,62.156c0,0,10.337,54.965-32.794,35.512l-20.715-12.82C644.266,586.471,720.416,536.267,662.762,457.579z
		"/>
	<path fill="#D02334" d="M623.646,530.293c-2.313,11.79-17.3,18.781-33.47,15.612s-27.397-15.298-25.088-27.089
		c2.312-11.79,17.287-18.781,33.457-15.611C614.717,506.373,625.957,518.502,623.646,530.293z"/>
	<circle fill="#3D5A7F" cx="555.312" cy="486.821" r="4.266"/>
	<path fill="#3D5A7F" d="M647.35,504.861c-0.455,2.312-2.693,3.817-5.004,3.365c-2.315-0.455-3.817-2.694-3.365-5.007
		c0.453-2.314,2.69-3.825,5.007-3.37C646.297,500.304,647.803,502.547,647.35,504.861z"/>
	<path fill="#E3ADA5" d="M669.74,538.741c-1.49,7.604-8.861,12.558-16.465,11.066c-7.605-1.489-12.564-8.861-11.074-16.464
		c1.49-7.604,8.865-12.56,16.471-11.068C666.275,523.766,671.23,531.14,669.74,538.741z"/>
	<path fill="#E3ADA5" d="M549.746,515.225c-1.49,7.601-8.865,12.558-16.471,11.064c-7.601-1.488-12.558-8.86-11.066-16.464
		c1.49-7.603,8.863-12.561,16.464-11.069C546.277,500.245,551.234,507.62,549.746,515.225z"/>
	<path fill="#459480" d="M660.127,489.6c-0.955,2.991-5.345,4.257-9.814,2.833l-18.61-5.937c-4.469-1.425-7.316-5.004-6.361-7.99
		l0,0c0.955-2.991,5.349-4.261,9.812-2.839l18.613,5.937C658.235,483.029,661.083,486.605,660.127,489.6L660.127,489.6z"/>
	<path fill="#459480" d="M581.316,469.553c-0.189,3.133-4.142,5.444-8.819,5.154l-19.503-1.186
		c-4.678-0.285-8.312-3.058-8.121-6.189l0,0c0.186-3.132,4.137-5.441,8.818-5.156l19.498,1.19
		C577.869,463.646,581.51,466.418,581.316,469.553L581.316,469.553z"/>
	<g>
		<polygon fill="#187271" points="581.545,593.689 540.807,564.924 539.702,594.83 531.043,614.744 579.781,602.688 		"/>
		<polygon fill="#187271" points="587.27,594.814 630.125,582.43 620.449,610.656 620.361,632.25 585.508,603.809 		"/>
		<path fill="#25A9A8" d="M590.889,600.609c-1.135,5.79-6.67,9.58-12.358,8.465c-5.691-1.117-9.386-6.715-8.251-12.505
			c1.134-5.792,6.671-9.585,12.361-8.471C588.33,589.216,592.023,594.816,590.889,600.609z"/>
	</g>
	<g>
		<g>
			<path fill="#F29122" d="M566.863,394.27l-5.433,47.642c0,0,54.438,29.416,89.431,2.021l-3.041-41.44l-13.712,22.232
				l-23.993-25.972l-18.489,21.059L566.863,394.27z"/>
			<path fill="#A8D2AF" d="M576.736,392.296c-1.331,4.708-6.278,7.441-11.039,6.093c-4.765-1.347-7.543-6.266-6.211-10.978
				c1.334-4.711,6.279-7.441,11.044-6.094C575.291,382.665,578.07,387.582,576.736,392.296z"/>
			<path fill="#A8D2AF" d="M620.371,395.425c-1.334,4.714-6.275,7.447-11.041,6.099c-4.762-1.351-7.539-6.267-6.205-10.981
				c1.334-4.711,6.275-7.441,11.039-6.094C618.929,385.8,621.705,390.716,620.371,395.425z"/>
			<path fill="#A8D2AF" d="M657.832,400.025c-1.334,4.716-6.273,7.447-11.039,6.096c-4.764-1.348-7.546-6.261-6.211-10.978
				c1.334-4.711,6.279-7.442,11.041-6.094C656.392,390.397,659.166,395.313,657.832,400.025z"/>
		</g>
	</g>
</g>
<g>
	<polygon fill="#3D4652" points="540.025,633.555 476.421,670.787 412.818,633.555 412.818,372 540.025,372 	"/>
	<polygon fill="#FFFFFF" points="528.803,626 476.421,654 424.04,626 424.04,343.281 528.803,343.281 	"/>
	<g>
		<g>
			<path fill="#3D4652" d="M486.327,481.882v4.34c0.001,1.275-0.615,2.045-1.847,2.31c-0.114,0.02-0.268,0.047-0.461,0.083
				c-0.193,0.035-0.55,0.1-1.067,0.191c-0.52,0.093-1.22,0.218-2.104,0.374l-18.607,46.074h-8.969l-18.607-46.071
				c-0.891-0.157-1.597-0.282-2.117-0.376c-0.52-0.093-0.878-0.157-1.074-0.192c-0.195-0.038-0.349-0.065-0.46-0.084
				c-1.23-0.265-1.847-1.033-1.847-2.31v-4.339h2.549h3.043h4.966h9.378v4.339c0,1.275-0.615,2.045-1.848,2.31
				c-0.075,0.018-0.19,0.046-0.352,0.085c-0.16,0.04-0.417,0.104-0.771,0.191c-0.354,0.089-0.746,0.186-1.174,0.287l10.637,27.593
				c0.418,1.062,0.818,2.226,1.199,3.488c0.383,1.275,0.746,2.609,1.088,4.006c0.566-2.83,1.269-5.328,2.104-7.494l10.601-27.581
				c-0.441-0.104-0.845-0.202-1.207-0.294c-0.361-0.09-0.625-0.155-0.788-0.196s-0.281-0.07-0.355-0.086
				c-1.231-0.265-1.848-1.033-1.848-2.31v-4.339h9.396h4.949h3.061L486.327,481.882L486.327,481.882z"/>
			<path fill="#3D4652" d="M523.791,518.533c0,2.412-0.412,4.67-1.237,6.772c-0.823,2.104-2.029,3.938-3.616,5.5
				c-1.587,1.563-3.523,2.793-5.813,3.691c-2.288,0.897-4.909,1.348-7.862,1.348c-0.311,0-0.677-0.01-1.099-0.026
				c-4.743,0-9.851-0.939-15.323-2.814v-1.307v-12.42h0.316h0.896h3.037c0.951,0,1.524,0.459,1.722,1.377
				c0.118,0.67,0.341,2.701,0.666,6.094c2.125,0.65,5.485,0.977,10.081,0.977c2.829,0,5.02-0.67,6.569-2.012
				c1.551-1.34,2.325-3.266,2.326-5.775c0-1.401-0.353-2.547-1.053-3.434c-0.701-0.885-1.631-1.629-2.786-2.232
				c-1.157-0.602-2.475-1.112-3.949-1.53c-1.493-0.424-2.994-0.879-4.504-1.365c-1.524-0.492-3.025-1.084-4.502-1.773
				c-1.476-0.688-2.792-1.586-3.95-2.692c-1.156-1.107-2.085-2.492-2.786-4.152s-1.052-3.709-1.052-6.145
				c0-1.944,0.388-3.839,1.163-5.686c0.773-1.846,1.905-3.48,3.395-4.909c1.489-1.427,3.316-2.569,5.481-3.433
				c2.166-0.861,4.64-1.292,7.419-1.292c5.242,0,10.348,1.01,15.314,3.028v13.652h-0.314h-0.896h-3.037
				c-0.949,0-1.523-0.459-1.722-1.377c-0.116-0.67-0.335-2.661-0.654-5.976c-1.861-0.83-4.722-1.245-8.58-1.245
				c-1.378,0.001-2.576,0.167-3.599,0.498c-1.021,0.333-1.884,0.795-2.583,1.385c-0.701,0.59-1.224,1.298-1.569,2.122
				c-0.345,0.825-0.517,1.729-0.517,2.713c0,1.255,0.35,2.302,1.051,3.139c0.701,0.836,1.63,1.55,2.787,2.141
				c1.157,0.59,2.475,1.119,3.949,1.586c1.476,0.469,2.982,0.967,4.521,1.496c1.546,0.531,3.053,1.146,4.521,1.846
				c1.474,0.699,2.791,1.586,3.949,2.656c1.156,1.072,2.086,2.383,2.786,3.932C523.439,514.438,523.791,516.318,523.791,518.533z"/>
		</g>
	</g>
</g>
</svg>
