<?xml version="1.0" encoding="utf-8"?>
<!-- Generator: Adobe Illustrator 16.0.0, SVG Export Plug-In . SVG Version: 6.00 Build 0)  -->
<!DOCTYPE svg PUBLIC "-//W3C//DTD SVG 1.1//EN" "http://www.w3.org/Graphics/SVG/1.1/DTD/svg11.dtd">
<svg version="1.1" id="Calque_1" xmlns="http://www.w3.org/2000/svg" xmlns:xlink="http://www.w3.org/1999/xlink" x="0px" y="0px"
	 width="52.055px" height="53.211px" viewBox="0 0 52.055 53.211" enable-background="new 0 0 52.055 53.211" xml:space="preserve">
<g>
	<path fill="#FFFFFF" d="M29.44,39.197c0-4.197,3.18-6.517,8.369-9.955c6.346-4.204,14.245-9.438,14.245-21.857
		c0-1.117-0.917-2.023-2.048-2.023h-9.92C38.684,2.771,34.507,0,26.026,0c-8.481,0-12.657,2.771-14.061,5.361H2.045
		C0.915,5.361,0,6.268,0,7.385c0,12.42,7.896,17.653,14.244,21.857c5.189,3.438,8.369,5.758,8.369,9.955v3.789
		c-5.449,0.605-9.454,2.623-9.454,5.02c0,2.875,5.761,5.205,12.867,5.205s12.868-2.33,12.868-5.205c0-2.396-4.005-4.414-9.454-5.02
		V39.197z M37.47,24.58c1.641-3.471,2.938-8.176,3.148-15.17h7.255C47.184,17.217,42.491,21.159,37.47,24.58z M26.026,3.545
		c7.901-0.006,10.988,3.227,10.983,4.424c0,1.206-3.082,4.433-10.983,4.439c-7.901-0.007-10.983-3.233-10.983-4.439
		C15.038,6.771,18.125,3.539,26.026,3.545z M4.18,9.41h7.255c0.21,6.994,1.508,11.699,3.149,15.17
		C9.562,21.159,4.87,17.217,4.18,9.41z"/>
</g>
</svg>
